<svg xmlns="http://www.w3.org/2000/svg" width="512" height="512" viewBox="0 0 512 512">
  <!-- Background circle -->
  <circle cx="256" cy="256" r="256" fill="#1E3A8A"/>

  <!-- Cheese and mouse icon scaled and centered -->
  <g transform="translate(128, 128) scale(7.11)">
    <path
      clip-rule="evenodd"
      d="M9.98 15.55c-2.84-.21-2.97-1-3-1.64-.05-.63.54-1.01.54-1.01s2.76.98 5.66.42c-3.79-.03-5.85-1.03-5.85-1.03L4.6 7.33s-.41-.84.23-1.19c.63-.35 1.33.15 1.7.36.36.2 3.7 2.18 3.7 2.18s1 .5 1.7-.61c.7-1.12 3.16-6.48 3.16-6.48s.19-.48.66-.58c.47-.09.83.3.83.3s4.28 4.05 5.34 4.82c1.07.78 1.8-.07 1.8-.07s2.36-3.07 2.63-3.4c.26-.32.73-1.05 1.45-.96.72.09.65 1.01.65 1.01l-.7 5.63s-1.54 1.7-5.03 3.14c2.9-.56 5.08-2.5 5.08-2.5s.7.13.9.73c.2.6.36 1.38-2.19 2.64-3.48 1.73-12.66 3.5-16.52 3.2Zm7.64-11.02 2.53 2.95c.3.37.4.83.26 1.28l-1.2 3.9c-.16.48-.54.83-1.04.92-.5.1-.98-.07-1.3-.47L14.3 9.95c-.3-.37-.39-.84-.24-1.29l1.25-3.68c.16-.48.53-.8 1.02-.9.5-.1.96.07 1.29.45Z"
      fill="#F5DF07"
      fill-rule="evenodd"
    />
    <path
      clip-rule="evenodd"
      d="m28.1 5.46-.36 2.88s-1.54 1.7-5.03 3.14c2.9-.56 5.08-2.5 5.08-2.5s.7.13.9.73c.2.6.36 1.38-2.19 2.65-2.68 1.32-8.75 2.68-13.16 3.1 1.42-.79 2.87-1.94 2.6-2a9.1 9.1 0 0 0-2.34-.1 27 27 0 0 1 2.1-1.7l1.17 1.45c.32.4.8.57 1.3.47.5-.1.88-.43 1.03-.92l1.21-3.9c.14-.45.05-.91-.26-1.27L17.6 4.53c-.3-.35-.72-.51-1.16-.46-.02-.77-.08-1.64-.08-1.64-.05-.55.95.2.95.2s3.16 3.04 4.2 4c1.05.98 2.26.18 2.26.18s3.09-4.36 3.66-4.41c.45-.05.5 1.85.66 3.06Z"
      fill="#F9A91C"
      fill-rule="evenodd"
    />
    <path
      d="M16.59 5.41 15.34 9.1l2.58 3.16 1.2-3.9-2.53-2.95Z"
      fill="#E51C59"
    />
    <path
      d="m16.77 6.36.34 1.73-1.17.8.83-2.53Z"
      fill="#FEFEFE"
    />
    <path
      d="m18.55 8.5-.8 2.94-.34-1.8 1.14-1.14Z"
      fill="#B8284B"
    />
    <path
      clip-rule="evenodd"
      d="M9.85 17.38a9 9 0 0 0 3.06 9.7h.22c1.47 0 2.79.69 3.64 1.76a9 9 0 0 0 8.53-14.7c-.42 0-.8-.16-1.08-.43-1.24.54-2.72 1.09-4.26 1.59a1.3 1.3 0 1 1-1.61.5c-.88.25-1.77.5-2.62.7a2.27 2.27 0 1 1-4.18.8 13.21 13.21 0 0 1-1.7.09ZM24 23.28a.78.78 0 1 0-1.57 0 .78.78 0 0 0 1.57 0Zm-3.07 3.53a.94.94 0 1 0-1.88 0 .94.94 0 0 0 1.88 0Zm5.55-7.94a1.89 1.89 0 1 0-3.78 0 1.89 1.89 0 0 0 3.78 0Zm-7.39 4.33a1.62 1.62 0 1 0-3.24 0 1.62 1.62 0 0 0 3.24 0Zm-6.99-1.54a.9.9 0 1 0-1.8 0 .9.9 0 0 0 1.8 0Z"
      fill="#FC0"
      fill-rule="evenodd"
    />
  </g>
</svg>
